<?xml version="1.0" encoding="utf-8"?>
<!-- Generator: Adobe Illustrator 21.1.0, SVG Export Plug-In . SVG Version: 6.00 Build 0)  -->
<svg version="1.1" id="zoom-plus" xmlns="http://www.w3.org/2000/svg" xmlns:xlink="http://www.w3.org/1999/xlink" x="0px" y="0px"
	 viewBox="0 0 31 36.3" style="enable-background:new 0 0 31 36.3;" xml:space="preserve">
<style type="text/css">
	.st0{fill:#CED3DD;}
</style>
<path class="st0" d="M23.9,31.3c0,0-2.3-2.7-2.1-4.4c0.3-1.6,1.3-0.3,2.3,1c1.6,1.9,3.4,3.5,5.6,4.8c0,0,1.4,0.6,1.2,1.3
	c-0.2,0.6-0.4,1.1-2.3,0.8c-1.9,0-3.7,0.4-5.4,1.1c0,0-1.8,0.9-2.1,0c-0.3-0.9,2.8-2.3,3.7-2.4c0,0-27-3.9-24.8-31.8
	c0,0,0.2-2,1.4-1.6C2,0.3,1.5,1.6,1.4,2.9S0,24.8,23.9,31.3z"/>
</svg>
