<svg viewBox="0 0 310 445" xmlns="http://www.w3.org/2000/svg"><path id="svg_3" fill="#ffffff" d="m154.499893,2.832029c-84.552994,0 -153.105002,68.554003 -153.105002,153.106005c0,113.559006 153.105002,286.729996 153.105002,286.729996s153.105972,-173.171967 153.105972,-286.729996c0,-84.552002 -68.55397,-153.106005 -153.105972,-153.106005zm0,217.705004c-35.682007,0 -64.600006,-28.917007 -64.600006,-64.600006s28.917999,-64.599983 64.600006,-64.599983s64.600006,28.917 64.600006,64.599983s-28.917999,64.600006 -64.600006,64.600006z"/><path id="svg_4" fill="#ffffff" d="m692.499878,2.832029c-84.552979,0 -153.10498,68.554003 -153.10498,153.106005c0,113.559006 153.10498,286.729996 153.10498,286.729996s153.106018,-173.171967 153.106018,-286.729996c0,-84.552002 -68.554016,-153.106005 -153.106018,-153.106005zm0,217.705004c-35.682007,0 -64.599976,-28.917007 -64.599976,-64.600006s28.917969,-64.599983 64.599976,-64.599983s64.599976,28.917 64.599976,64.599983s-28.917969,64.600006 -64.599976,64.600006z"/><path id="svg_5" fill="#ffffff" d="m-382.500122,2.832029c-84.553009,0 -153.10498,68.554003 -153.10498,153.106005c0,113.559006 153.10498,286.729996 153.10498,286.729996s153.106018,-173.171967 153.106018,-286.729996c0,-84.552002 -68.554016,-153.106005 -153.106018,-153.106005zm0,217.705004c-35.682007,0 -64.600006,-28.917007 -64.600006,-64.600006s28.917999,-64.599983 64.600006,-64.599983s64.600006,28.917 64.600006,64.599983s-28.917999,64.600006 -64.600006,64.600006z"/></svg>