<svg width="102" height="115" xmlns="http://www.w3.org/2000/svg" fill="#000000"><path id="svg_3" d="m59.58987,83.95699c-0.38599,1.035 0.14,2.187 1.17498,2.573l16.74495,6.248c-7.854,5.62 -17.09995,8.59399 -26.80381,8.59399c-25.43505,0 -46.12705,-20.69299 -46.12705,-46.1279c0,-1.104 -0.896,-2 -1.99999,-2s-2,0.896 -2,2c0,27.6399 22.48698,50.1279 50.12705,50.1279c9.72486,0 19.02581,-2.75 27.11081,-7.966l-3.087,14.551c-0.229,1.07999 0.461,2.142 1.541,2.37099c0.14,0.03 0.279,0.044 0.417,0.044c0.925,0 1.755,-0.645 1.954,-1.586l4.68999,-22.105l-21.16997,-7.898c-1.03198,-0.385 -2.18496,0.139 -2.57196,1.174zm-8.13588,-74.21393c-9.72799,0 -19.02999,2.74899 -27.11005,7.96298l3.08603,-14.54798c0.229,-1.081 -0.46001,-2.142 -1.54101,-2.371c-1.07701,-0.229 -2.14302,0.461 -2.37102,1.542l-4.69003,22.10398l21.1701,7.89805c0.23,0.086 0.467,0.127 0.699,0.127c0.811,0 1.573,-0.498 1.874,-1.30201c0.386,-1.03401 -0.14,-2.18702 -1.175,-2.57302l-16.74706,-6.25002c7.85005,-5.618 17.09705,-8.59099 26.80604,-8.59099c25.43382,0 46.12482,20.69104 46.12482,46.125c0,1.10399 0.896,1.99997 2,1.99997s2,-0.89598 2,-1.99997c-0.001,-27.63797 -22.487,-50.12399 -50.12582,-50.12399z"/></svg>