<?xml version="1.0" encoding="UTF-8"?><!DOCTYPE svg PUBLIC "-//W3C//DTD SVG 1.1//EN" "http://www.w3.org/Graphics/SVG/1.1/DTD/svg11.dtd"><svg xmlns="http://www.w3.org/2000/svg"><symbol id="loc" viewBox="0 0 310 445"><path id="svg_3" fill="#ffffff" d="m154.499893,2.832029c-84.552994,0 -153.105002,68.554003 -153.105002,153.106005c0,113.559006 153.105002,286.729996 153.105002,286.729996s153.105972,-173.171967 153.105972,-286.729996c0,-84.552002 -68.55397,-153.106005 -153.105972,-153.106005zm0,217.705004c-35.682007,0 -64.600006,-28.917007 -64.600006,-64.600006s28.917999,-64.599983 64.600006,-64.599983s64.600006,28.917 64.600006,64.599983s-28.917999,64.600006 -64.600006,64.600006z"/><path id="svg_4" fill="#ffffff" d="m692.499878,2.832029c-84.552979,0 -153.10498,68.554003 -153.10498,153.106005c0,113.559006 153.10498,286.729996 153.10498,286.729996s153.106018,-173.171967 153.106018,-286.729996c0,-84.552002 -68.554016,-153.106005 -153.106018,-153.106005zm0,217.705004c-35.682007,0 -64.599976,-28.917007 -64.599976,-64.600006s28.917969,-64.599983 64.599976,-64.599983s64.599976,28.917 64.599976,64.599983s-28.917969,64.600006 -64.599976,64.600006z"/><path id="svg_5" fill="#ffffff" d="m-382.500122,2.832029c-84.553009,0 -153.10498,68.554003 -153.10498,153.106005c0,113.559006 153.10498,286.729996 153.10498,286.729996s153.106018,-173.171967 153.106018,-286.729996c0,-84.552002 -68.554016,-153.106005 -153.106018,-153.106005zm0,217.705004c-35.682007,0 -64.600006,-28.917007 -64.600006,-64.600006s28.917999,-64.599983 64.600006,-64.599983s64.600006,28.917 64.600006,64.599983s-28.917999,64.600006 -64.600006,64.600006z"/></symbol><symbol id="search" viewBox="0 0 22.3 22.3"><g id="miu" fill-rule="evenodd" fill="none"><g id="slice"/><path id="common-search-lookup-glyph" fill="#000000" d="m15.636955,13.515617c0.959839,-1.376587 1.522705,-3.050537 1.522705,-4.855957c0,-4.694423 -3.805603,-8.499995 -8.5,-8.499995c-4.694392,0 -8.499995,3.805573 -8.499995,8.499995c0,4.694429 3.805603,8.5 8.499995,8.5c1.805176,0 3.478884,-0.562714 4.855348,-1.522278l0.000552,-0.000519l6.303524,6.303558c0.116882,0.116882 0.302795,0.120453 0.422791,0.000458l1.699036,-1.699005c0.116577,-0.116608 0.111145,-0.311127 -0.000488,-0.422791l-6.303467,-6.303467zm-6.977295,1.644043c3.589845,0 6.5,-2.910155 6.5,-6.5c0,-3.589839 -2.910155,-6.499995 -6.5,-6.499995c-3.589839,0 -6.499995,2.910156 -6.499995,6.499995c0,3.589845 2.910156,6.5 6.499995,6.5z"/></g></symbol></svg>