<?xml version="1.0" encoding="UTF-8"?><!DOCTYPE svg PUBLIC "-//W3C//DTD SVG 1.1//EN" "http://www.w3.org/Graphics/SVG/1.1/DTD/svg11.dtd"><svg xmlns="http://www.w3.org/2000/svg" xmlns:xlink="http://www.w3.org/1999/xlink"><symbol id="arrow-bottom" viewBox="0 0 21.5 15.9"><path d="m2.83,0.42l9.17,9.17l9.169998,-9.17l2.830002,2.83l-12,12l-12,-12l2.83,-2.83z"/></symbol><symbol id="arrow_left" viewBox="0 0 15 24.5"><path id="svg_1" d="m14.977888,21.40658l-9.169999,-9.169998l9.169999,-9.17l-2.829999,-2.83l-12,12l12,12l2.829999,-2.830002z"/><path stroke="null" id="svg_2" fill="none" d="m0.148682,0.044084l14.689654,0l0,23.974919l-14.689654,0l0,-23.974919z"/></symbol><symbol id="arrow_right" viewBox="0 0 15 24.5"><path d="m0.124967,21.370632l9.17,-9.170002l-9.17,-9.17l2.83,-2.83l12,12l-12,12l-2.83,-2.829998z"/><path stroke="null" id="svg_2" fill="none" d="m7.473229,5.411077l14.913806,0l0,23.846835l-14.913806,0l0,-23.846835z"/></symbol><symbol id="close" viewBox="0 0 28.5 28.5"><path fill="#ffffff" d="m28.276947,2.974928l-2.830002,-2.83l-11.169999,11.17l-11.169998,-11.17l-2.83,2.83l11.169998,11.17l-11.169998,11.169998l2.83,2.830002l11.169998,-11.17l11.169999,11.17l2.830002,-2.830002l-11.170002,-11.169998l11.170002,-11.17z"/></symbol><symbol id="loc" viewBox="0 0 310 445"><path id="svg_3" fill="#ffffff" d="m154.499893,2.832029c-84.552994,0 -153.105002,68.554003 -153.105002,153.106005c0,113.559006 153.105002,286.729996 153.105002,286.729996s153.105972,-173.171967 153.105972,-286.729996c0,-84.552002 -68.55397,-153.106005 -153.105972,-153.106005zm0,217.705004c-35.682007,0 -64.600006,-28.917007 -64.600006,-64.600006s28.917999,-64.599983 64.600006,-64.599983s64.600006,28.917 64.600006,64.599983s-28.917999,64.600006 -64.600006,64.600006z"/><path id="svg_4" fill="#ffffff" d="m692.499878,2.832029c-84.552979,0 -153.10498,68.554003 -153.10498,153.106005c0,113.559006 153.10498,286.729996 153.10498,286.729996s153.106018,-173.171967 153.106018,-286.729996c0,-84.552002 -68.554016,-153.106005 -153.106018,-153.106005zm0,217.705004c-35.682007,0 -64.599976,-28.917007 -64.599976,-64.600006s28.917969,-64.599983 64.599976,-64.599983s64.599976,28.917 64.599976,64.599983s-28.917969,64.600006 -64.599976,64.600006z"/><path id="svg_5" fill="#ffffff" d="m-382.500122,2.832029c-84.553009,0 -153.10498,68.554003 -153.10498,153.106005c0,113.559006 153.10498,286.729996 153.10498,286.729996s153.106018,-173.171967 153.106018,-286.729996c0,-84.552002 -68.554016,-153.106005 -153.106018,-153.106005zm0,217.705004c-35.682007,0 -64.600006,-28.917007 -64.600006,-64.600006s28.917999,-64.599983 64.600006,-64.599983s64.600006,28.917 64.600006,64.599983s-28.917999,64.600006 -64.600006,64.600006z"/></symbol><symbol id="marker" viewBox="0 0 310 445"><path id="svg_5" fill="#0051a2" d="m-382.500122,2.832029c-84.553009,0 -153.10498,68.554003 -153.10498,153.106005c0,113.559006 153.10498,286.729996 153.10498,286.729996s153.106018,-173.171967 153.106018,-286.729996c0,-84.552002 -68.554016,-153.106005 -153.106018,-153.106005zm0,217.705004c-35.682007,0 -64.600006,-28.917007 -64.600006,-64.600006s28.917999,-64.599983 64.600006,-64.599983s64.600006,28.917 64.600006,64.599983s-28.917999,64.600006 -64.600006,64.600006z"/></symbol><symbol id="nav-active" viewBox="0 0 15 24.5"><path d="m0.124967,21.370632l9.17,-9.170002l-9.17,-9.17l2.83,-2.83l12,12l-12,12l-2.83,-2.829998z"/><path stroke="null" id="svg_2" fill="none" d="m7.473229,5.411077l14.913806,0l0,23.846835l-14.913806,0l0,-23.846835z"/></symbol><symbol id="pin" viewBox="0 0 310 445"><path id="svg_5" fill="#e50005" d="m-382.500122,2.832029c-84.553009,0 -153.10498,68.554003 -153.10498,153.106005c0,113.559006 153.10498,286.729996 153.10498,286.729996s153.106018,-173.171967 153.106018,-286.729996c0,-84.552002 -68.554016,-153.106005 -153.106018,-153.106005zm0,217.705004c-35.682007,0 -64.600006,-28.917007 -64.600006,-64.600006s28.917999,-64.599983 64.600006,-64.599983s64.600006,28.917 64.600006,64.599983s-28.917999,64.600006 -64.600006,64.600006z"/></symbol><symbol id="popup-left" viewBox="0 0 286 512"><path fill="#6A6E7C" d="m268.5,512c-3.700012,0 -7.399994,-1.299988 -10.299988,-4.100006l-253.000015,-235.399994c-3,-2.799988 -4.800003,-6.799988 -4.800003,-10.899994c-0.099998,-4.200012 1.600006,-8.200012 4.600006,-11.100006l252.899994,-246.2c6,-5.8 15.600006,-5.7 21.5,0.3c5.799988,6 5.700012,15.600001 -0.299988,21.5l-241.5,235.100012l241.199982,224.5c6.100006,5.700012 6.5,15.299988 0.800018,21.5c-3,3.199982 -7.100006,4.799988 -11.100006,4.799988z"/></symbol><symbol id="popup-right" viewBox="0 0 286 512"><path fill="#6A6E7C" d="m16.600006,512c-4.099998,0 -8.099998,-1.600006 -11.099998,-4.799988c-5.700005,-6.100006 -5.400002,-15.700012 0.799995,-21.5l241.199997,-224.5l-241.5,-235.100012c-6,-5.9 -6.099998,-15.5 -0.300003,-21.5c5.900002,-6 15.5,-6.1 21.5,-0.3l252.800003,246.2c3,2.899994 4.700012,6.899994 4.600006,11.100006c-0.100006,4.199982 -1.800018,8.100006 -4.800018,10.899994l-252.899994,235.399994c-2.899994,2.800018 -6.599991,4.100006 -10.299988,4.100006z"/></symbol><symbol id="search" viewBox="0 0 22.3 22.3"><g id="miu" fill-rule="evenodd" fill="none"><g id="slice"/><path id="common-search-lookup-glyph" fill="#000000" d="m15.636955,13.515617c0.959839,-1.376587 1.522705,-3.050537 1.522705,-4.855957c0,-4.694423 -3.805603,-8.499995 -8.5,-8.499995c-4.694392,0 -8.499995,3.805573 -8.499995,8.499995c0,4.694429 3.805603,8.5 8.499995,8.5c1.805176,0 3.478884,-0.562714 4.855348,-1.522278l0.000552,-0.000519l6.303524,6.303558c0.116882,0.116882 0.302795,0.120453 0.422791,0.000458l1.699036,-1.699005c0.116577,-0.116608 0.111145,-0.311127 -0.000488,-0.422791l-6.303467,-6.303467zm-6.977295,1.644043c3.589845,0 6.5,-2.910155 6.5,-6.5c0,-3.589839 -2.910155,-6.499995 -6.5,-6.499995c-3.589839,0 -6.499995,2.910156 -6.499995,6.499995c0,3.589845 2.910156,6.5 6.499995,6.5z"/></g></symbol><symbol id="select" viewBox="0 0 5 14">
    <desc>Created with Avocode</desc>
    <g fill="#7f7f7f">
        <path d="M 2.5 0 L 0 4 L 5 4 L 2.5 0 Z"/>
        <path d="M 2.5 14 L 5 10 L 0 10 L 2.5 14 Z"/>
    </g>
</symbol></svg>